# xmcd CD database file
#
# Track frame offsets:
#	150
#	16085
#	28085
#	41539
#	55564
#	71943
#	83578
#	96314
#	108483
#	124733
#	136555
#	154780
#	166921
#	182734
#	197006
#	209219
#	215904
#	221192
#	243158
#	262930
#	285674
#	298162
#	314125
#
# Disc length: 4487 seconds
#
# Revision: 0
# Processed by: cddbd v1.5.2PL0 Copyright (c) Steve Scherf et al.
# Submitted via: CDex 1.70beta2
#
DISCID=5f118517
DTITLE=Baker, Chet - Chet Baker and Strings (The Complete Session)
DYEAR=2014
DGENRE=Jazz
TTITLE0=You Don't Know What Love Is
TTITLE1=I'm Thru With Love
TTITLE2=Love Walked In
TTITLE3=You Better Go Now
TTITLE4=I Married An Angel
TTITLE5=Love
TTITLE6=I Love You
TTITLE7=What A Diff'rence A Day Made
TTITLE8=Why Shouldn't I
TTITLE9=A Little Duet For Zoot And Chet
TTITLE10=The Wind
TTITLE11=Trickleydidlier
TTITLE12=You Don't Know What Love Is (alt. take)
TTITLE13=You Better Go Now (alt. take)
TTITLE14=A Little Duet For Zoot And Chet (alt. take)
TTITLE15=Blue Room (unacompanied vocal version)
TTITLE16=Spring Is Here (unacompanied vocal version)
TTITLE17=You Don't Know What Love Is (1955 vocal version)
TTITLE18=The Wind (1954 Quartet live version)
TTITLE19=Goodbye
TTITLE20=I Should Care
TTITLE21=Autumn In New York
TTITLE22=My Funny Valentine
EXTD=YEAR: 2014
EXTT0=
EXTT1=
EXTT2=
EXTT3=
EXTT4=
EXTT5=
EXTT6=
EXTT7=
EXTT8=
EXTT9=
EXTT10=
EXTT11=
EXTT12=
EXTT13=
EXTT14=
EXTT15=
EXTT16=
EXTT17=
EXTT18=
EXTT19=
EXTT20=
EXTT21=
EXTT22=
PLAYORDER=
